# xmcd
#
# Track frame offsets: 
#        150
#        2283
#        15160
#        29834
#        43449
#        55911
#        67511
#        79691
#        92897
#        105621
#        115824
#        129933
#        142185
#        157574
#        167686
#        179830
#        192376
#        203567
#        215726
#        227834
#        236102
#        249106
#        260395
#
# Disc length: 3501 seconds
#
# Revision: 0
# Processed by: cddbd v1.5PL3 Copyright (c) Steve Scherf et al.
# Submitted via: ExactAudioCopy v0.90b4
#
DISCID=310dab17
DTITLE=Stonewall Jackson and Friends - A Tribute
DYEAR=2002
DGENRE=Country
TTITLE0=Opening Dialogue
TTITLE1=Poor Boy
TTITLE2=I Washed My Hands In Muddy Water
TTITLE3=Don't Be Angry
TTITLE4=A Wound Time Can't Erase
TTITLE5=Promises And Hearts
TTITLE6=Life To Go
TTITLE7=Me And You And A Dog Named Boo
TTITLE8=B.J. The D.J.
TTITLE9=Think I've Found Heaven
TTITLE10=Monroe's Horn Pipe
TTITLE11=I'm Always Second Choice
TTITLE12=Standing Invitation
TTITLE13=Oh Mary Don't You Weep
TTITLE14=Save A Little Place For Me
TTITLE15=Show Boat
TTITLE16=Angry Words
TTITLE17=Smoke Along The Track
TTITLE18=Help Stamp Out Loneliness
TTITLE19=That's Why I'm Walkin'
TTITLE20=Jesus Is My Lifeline
TTITLE21=Waterloo
TTITLE22=Closing Dialogue
EXTD=
EXTT0=
EXTT1=
EXTT2=
EXTT3=
EXTT4=
EXTT5=
EXTT6=
EXTT7=
EXTT8=
EXTT9=
EXTT10=
EXTT11=
EXTT12=
EXTT13=
EXTT14=
EXTT15=
EXTT16=
EXTT17=
EXTT18=
EXTT19=
EXTT20=
EXTT21=
EXTT22=
PLAYORDER=
